<?xml version="1.0" encoding="utf-8"?>
<!-- Generator: Adobe Illustrator 23.0.3, SVG Export Plug-In . SVG Version: 6.00 Build 0)  -->
<svg version="1.1" id="Layer_1" xmlns="http://www.w3.org/2000/svg" xmlns:xlink="http://www.w3.org/1999/xlink" x="0px" y="0px"
	 viewBox="0 0 387.9 387.9" style="enable-background:new 0 0 387.9 387.9;" xml:space="preserve">
<style type="text/css">
	.st0{fill:url(#SVGID_1_);}
	.st1{fill:url(#SVGID_2_);}
	.st2{fill:url(#SVGID_3_);}
	.st3{fill:url(#SVGID_4_);}
	.st4{fill:url(#SVGID_5_);}
	.st5{fill:url(#SVGID_6_);}
	.st6{fill:url(#SVGID_7_);}
	.st7{fill:url(#SVGID_8_);}
	.st8{fill:url(#SVGID_9_);}
	.st9{fill:url(#SVGID_10_);}
	.st10{fill:url(#SVGID_11_);}
	.st11{fill:url(#SVGID_12_);}
	.st12{fill:url(#SVGID_13_);}
	.st13{fill:url(#SVGID_14_);}
	.st14{fill:url(#SVGID_15_);}
	.st15{fill:url(#SVGID_16_);}
	.st16{fill:url(#SVGID_17_);}
	.st17{fill:url(#SVGID_18_);}
	.st18{fill:url(#SVGID_19_);}
	.st19{fill:url(#SVGID_20_);}
	.st20{fill:url(#SVGID_21_);}
	.st21{fill:url(#SVGID_22_);}
	.st22{fill:url(#SVGID_23_);}
	.st23{fill:url(#SVGID_24_);}
	.st24{fill:url(#SVGID_25_);}
	.st25{fill:url(#SVGID_26_);}
	.st26{fill:url(#SVGID_27_);}
	.st27{fill:url(#SVGID_28_);}
	.st28{fill:url(#SVGID_29_);}
	.st29{fill:url(#SVGID_30_);}
	.st30{fill:url(#SVGID_31_);}
	.st31{fill:url(#SVGID_32_);}
	.st32{fill:url(#SVGID_33_);}
	.st33{fill:url(#SVGID_34_);}
	.st34{fill:url(#SVGID_35_);}
	.st35{fill:url(#SVGID_36_);}
	.st36{fill:url(#SVGID_37_);}
	.st37{fill:url(#SVGID_38_);}
	.st38{fill:url(#SVGID_39_);}
	.st39{fill:url(#SVGID_40_);}
	.st40{fill:url(#SVGID_41_);}
	.st41{fill:url(#SVGID_42_);}
	.st42{fill:url(#SVGID_43_);}
	.st43{fill:url(#SVGID_44_);}
	.st44{fill:url(#SVGID_45_);}
	.st45{fill:url(#SVGID_46_);}
	.st46{fill:url(#SVGID_47_);}
	.st47{fill:url(#SVGID_48_);}
	.st48{fill:url(#SVGID_49_);}
	.st49{fill:url(#SVGID_50_);}
	.st50{fill:url(#SVGID_51_);}
	.st51{fill:url(#SVGID_52_);}
	.st52{fill:url(#SVGID_53_);}
	.st53{fill:url(#SVGID_54_);}
	.st54{fill:url(#SVGID_55_);}
	.st55{fill:url(#SVGID_56_);}
	.st56{fill:url(#SVGID_57_);}
	.st57{fill:url(#SVGID_58_);}
	.st58{fill:url(#SVGID_59_);}
	.st59{fill:url(#SVGID_60_);}
	.st60{fill:url(#SVGID_61_);}
	.st61{fill:url(#SVGID_62_);}
	.st62{fill:url(#SVGID_63_);}
	.st63{fill:url(#SVGID_64_);}
	.st64{fill:url(#SVGID_65_);}
	.st65{fill:url(#SVGID_66_);}
	.st66{fill:url(#SVGID_67_);}
	.st67{fill:url(#SVGID_68_);}
	.st68{fill:url(#SVGID_69_);}
	.st69{fill:url(#SVGID_70_);}
	.st70{fill:url(#SVGID_71_);}
	.st71{fill:url(#SVGID_72_);}
	.st72{fill:url(#SVGID_73_);}
	.st73{fill:url(#SVGID_74_);}
	.st74{fill:url(#SVGID_75_);}
	.st75{fill:url(#SVGID_76_);}
	.st76{fill:url(#SVGID_77_);}
	.st77{fill:url(#SVGID_78_);}
	.st78{fill:url(#SVGID_79_);}
	.st79{fill:url(#SVGID_80_);}
	.st80{fill:url(#SVGID_81_);}
	.st81{fill:url(#SVGID_82_);}
	.st82{fill:url(#SVGID_83_);}
	.st83{fill:url(#SVGID_84_);}
	.st84{fill:url(#SVGID_85_);}
	.st85{fill:url(#SVGID_86_);}
	.st86{fill:url(#SVGID_87_);}
	.st87{fill:url(#SVGID_88_);}
	.st88{fill:url(#SVGID_89_);}
	.st89{fill:url(#SVGID_90_);}
	.st90{fill:url(#SVGID_91_);}
	.st91{fill:url(#SVGID_92_);}
	.st92{fill:url(#SVGID_93_);}
	.st93{fill:url(#SVGID_94_);}
	.st94{fill:url(#SVGID_95_);}
	.st95{fill:url(#SVGID_96_);}
	.st96{fill:url(#SVGID_97_);}
	.st97{fill:url(#SVGID_98_);}
	.st98{fill:url(#SVGID_99_);}
	.st99{fill:url(#SVGID_100_);}
	.st100{fill:url(#SVGID_101_);}
	.st101{fill:url(#SVGID_102_);}
	.st102{fill:url(#SVGID_103_);}
	.st103{fill:url(#SVGID_104_);}
	.st104{fill:url(#SVGID_105_);}
	.st105{fill:url(#SVGID_106_);}
	.st106{fill:url(#SVGID_107_);}
	.st107{fill:url(#SVGID_108_);}
	.st108{fill:url(#SVGID_109_);}
	.st109{fill:url(#SVGID_110_);}
	.st110{fill:url(#SVGID_111_);}
	.st111{fill:url(#SVGID_112_);}
	.st112{fill:url(#SVGID_113_);}
	.st113{fill:url(#SVGID_114_);}
	.st114{fill:url(#SVGID_115_);}
	.st115{fill:url(#SVGID_116_);}
	.st116{fill:url(#SVGID_117_);}
	.st117{fill:url(#SVGID_118_);}
	.st118{fill:url(#SVGID_119_);}
	.st119{fill:url(#SVGID_120_);}
	.st120{fill:url(#SVGID_121_);}
	.st121{fill:url(#SVGID_122_);}
	.st122{fill:url(#SVGID_123_);}
	.st123{fill:url(#SVGID_124_);}
	.st124{fill:url(#SVGID_125_);}
	.st125{fill:url(#SVGID_126_);}
	.st126{fill:url(#SVGID_127_);}
	.st127{fill:url(#SVGID_128_);}
	.st128{fill:url(#SVGID_129_);}
	.st129{fill:url(#SVGID_130_);}
	.st130{fill:url(#SVGID_131_);}
	.st131{fill:url(#SVGID_132_);}
	.st132{fill:url(#SVGID_133_);}
	.st133{fill:url(#SVGID_134_);}
	.st134{fill:url(#SVGID_135_);}
	.st135{fill:url(#SVGID_136_);}
	.st136{fill:url(#SVGID_137_);}
	.st137{fill:url(#SVGID_138_);}
	.st138{fill:url(#SVGID_139_);}
	.st139{fill:url(#SVGID_140_);}
	.st140{fill:url(#SVGID_141_);}
	.st141{fill:url(#SVGID_142_);}
	.st142{fill:url(#SVGID_143_);}
	.st143{fill:url(#SVGID_144_);}
	.st144{fill:url(#SVGID_145_);}
	.st145{fill:url(#SVGID_146_);}
	.st146{fill:url(#SVGID_147_);}
	.st147{fill:url(#SVGID_148_);}
	.st148{fill:url(#SVGID_149_);}
	.st149{fill:url(#SVGID_150_);}
	.st150{fill:url(#SVGID_151_);}
	.st151{fill:url(#SVGID_152_);}
	.st152{fill:url(#SVGID_153_);}
	.st153{fill:url(#SVGID_154_);}
	.st154{fill:url(#SVGID_155_);}
	.st155{fill:url(#SVGID_156_);}
	.st156{fill:url(#SVGID_157_);}
	.st157{fill:url(#SVGID_158_);}
	.st158{fill:url(#SVGID_159_);}
	.st159{fill:url(#SVGID_160_);}
	.st160{fill:url(#SVGID_161_);}
	.st161{fill:url(#SVGID_162_);}
	.st162{fill:url(#SVGID_163_);}
	.st163{fill:url(#SVGID_164_);}
	.st164{fill:url(#SVGID_165_);}
	.st165{fill:url(#SVGID_166_);}
	.st166{fill:url(#SVGID_167_);}
	.st167{fill:url(#SVGID_168_);}
	.st168{fill:url(#SVGID_169_);}
	.st169{fill:url(#SVGID_170_);}
</style>
<g>
	<path d="M295.3,189.5c-7.5,0-15.1-0.2-22.6,0.1c-4.6,0.2-6.8-0.9-6.8-6.1c-0.1-18.6-2.8-36.9-7.8-54.8c-1.5-5.3,0.7-6.3,4.9-7.6
		c7.2-2.2,14.8-4,21.1-7.7c8.7-5.1,12.9-2,17.7,5.3c13.1,19.8,21,41.1,23.2,64.8c0.4,4.6-0.7,6.2-5.3,6.1
		C311.6,189.3,303.5,189.5,295.3,189.5z"/>
	<path d="M91.5,189.5c-7.8,0-15.7-0.2-23.5,0.1c-4.7,0.2-5.9-1.6-5.5-6c2.5-26.2,11.6-49.8,27.7-70.7c2.4-3.1,4.4-3.3,7.9-1.6
		c8.7,4.3,17.8,7.8,27.3,10c4.2,1,5.5,2.8,4.2,7.2c-5.3,17.8-7.2,36.2-8,54.7c-0.2,4.8-1.5,6.6-6.5,6.3
		C107.2,189.2,99.4,189.5,91.5,189.5z"/>
	<path d="M92.1,198.5c7.5,0,15,0.2,22.6-0.1c4.5-0.2,6.7,0.7,6.8,6c0.6,18.2,2.7,36.2,7.6,53.8c1.3,4.5-0.6,5.2-4.1,6.2
		c-9.6,2.8-19.2,5.9-28,10.7c-3.7,2-5.8,1.6-8.4-1.9c-15-20.4-23.6-43.2-26-68.5c-0.5-5,1.1-6.6,6.1-6.4
		C76.5,198.7,84.3,198.5,92.1,198.5z"/>
	<path d="M325.1,203.5c-2,25.8-10.6,48.6-25.6,69.1c-2.7,3.7-4.8,4.8-9,2.4c-8.5-4.8-17.7-8-27.1-10.4c-5-1.3-5.7-3.2-4.5-7.8
		c4.4-17,7-34.4,7.1-52c0-4.8,1.4-6.6,6.4-6.5c15.7,0.3,31.3,0.1,47,0.1C323.3,198.4,326.7,198.6,325.1,203.5z"/>
	<path d="M227.4,189.5c-7.5,0-15-0.2-22.6,0.1c-4.5,0.1-6.9-0.7-6.7-6.1c0.3-15.7,0.2-31.3,0-47c0-4.2,0.9-6.2,5.6-6.2
		c12.9,0,25.6-1.8,38.3-4.1c4.4-0.8,6,0,7.2,4.3c4.7,17.6,7.1,35.6,8,53.8c0.2,4.4-1.5,5.4-5.4,5.3
		C243.7,189.4,235.6,189.5,227.4,189.5z"/>
	<path d="M228.4,198.5c7.8,0,15.7,0.2,23.5-0.1c4.1-0.1,5.5,1.2,5.3,5.4c-0.8,17.6-3.1,34.9-7.4,52c-1,3.8-2.6,5.2-6.5,4.2
		c-12.9-3-26-3.9-39.1-4.6c-4.2-0.2-6.1-1.2-6-5.9c0.3-15,0.2-30.1,0-45.1c-0.1-4.4,1.2-6.2,5.8-6
		C212.1,198.7,220.3,198.5,228.4,198.5z"/>
	<path d="M159.2,189.5c-7.5,0-15-0.2-22.6,0.1c-4.8,0.2-6.7-1.2-6.3-6.3c1.2-17.8,3.5-35.5,8.1-52.8c1.1-4,2.5-5.3,7.1-4.4
		c12.6,2.4,25.4,4.2,38.2,4.2c5,0,5.5,2.2,5.5,6.3c-0.1,15.7-0.3,31.3,0.1,47c0.1,5.3-2,6.2-6.6,6.1
		C174.9,189.3,167.1,189.5,159.2,189.5z"/>
	<path d="M160.2,198.5c7.5,0,15,0.2,22.5-0.1c4.8-0.2,6.6,1.1,6.5,6.2c-0.3,15-0.2,30,0,45c0,3.8-0.8,5.5-5.1,5.7
		c-13.4,0.7-26.9,1.6-40,4.7c-4.1,1-5.5-0.9-6.4-4.5c-4.2-16.7-6.4-33.7-7.5-50.9c-0.3-5.3,1.8-6.4,6.5-6.2
		C144.6,198.7,152.4,198.5,160.2,198.5z"/>
	<path d="M198.2,294.6c0-6.9,0.5-13.8-0.1-20.7c-0.7-7.7,1.4-10.9,9.6-9.6c10.5,1.7,21.1,2.5,31.7,3.9c2.7,0.4,7,0,4.8,5.3
		c-7.5,18.4-15.9,36.2-33.7,47.3c-3.4,2.1-7.4,5.4-11.1,3.1c-2.9-1.7-1-6.3-1.1-9.6C198.1,307.7,198.2,301.1,198.2,294.6z"/>
	<path d="M189.2,295.2c0,7.8-0.3,15.7,0.1,23.5c0.3,6.2-2,6.9-7.2,4.7c-11.8-5-20.4-13.8-26.2-24.7c-19.7-36.9-19.1-28.6,15.1-33.3
		c18.1-2.5,18.2-2.1,18.2,15.7C189.2,285.8,189.2,290.5,189.2,295.2z"/>
	<path d="M198.2,63.3c10,1.2,16.9,6.5,23.1,12.7c9.8,10,16,22.3,21.5,35c1.7,4,1.5,5.9-3.6,6.7c-11.5,1.6-22.9,3.3-34.6,3.6
		c-3.7,0.1-6.6,0.2-6.5-5.1C198.4,98.7,198.2,81.2,198.2,63.3z"/>
	<path d="M189.2,63.9c0,17.6-0.1,35.3,0.1,53.1c0,4.1-2.1,4.4-5.2,4.3c-12.2-0.3-24.3-1.7-36.3-3.9c-2-0.4-4.3,0-3.9-3.6
		c1.5-17,26.8-46.3,43.7-50.3C187.7,63.5,188.1,63.7,189.2,63.9z"/>
	<path d="M225.4,321.8c13.7-14.8,22.1-29.6,27.8-46c1.1-3.2,2.6-4.5,6.2-3.1c6.1,2.4,12.5,4.1,18.6,6.5c12.9,5,12.9,5.2,2,14.4
		C264.8,306.5,247.8,315.9,225.4,321.8z"/>
	<path d="M159.9,320.2c-22.7-5.1-41.8-16.3-58.2-32.3c-2.8-2.8-2.7-4.3,1.1-5.9c8.3-3.7,16.8-6.5,25.4-9.3c4.4-1.4,5.3,0.5,6.6,3.8
		C140.6,292.4,148.4,307.2,159.9,320.2z"/>
	<path d="M162.7,66.4c-13,13.1-21.2,27.4-27,43.1c-1.3,3.5-3.1,5.2-6.9,3.7c-7.9-3-15.8-5.9-23.8-8.6c-4.2-1.4-5-3-1.5-6.2
		C120.2,83.1,139.1,72.3,162.7,66.4z"/>
	<path d="M287.8,102.1c-3,1.5-4.5,2.5-6.2,3.1c-8.2,2.9-16.8,8.6-24.6,7.7c-8.6-1-7.8-13.1-12-19.9c-5.5-8.9-11.5-17.4-19.3-26.5
		C250.2,72.9,270.1,84.4,287.8,102.1z"/>
</g>
</svg>
